{
    "asset": {
        "version": "2.0",
        "generator": "Open Asset Import Library (assimp v5.2.f93f50fa)"
    },
    "extensionsUsed": [
        "KHR_materials_pbrSpecularGlossiness",
        "FB_ngon_encoding"
    ],
    "accessors": [
        {
            "bufferView": 0,
            "byteOffset": 0,
            "componentType": 5126,
            "count": 72,
            "type": "VEC3",
            "max": [
                0.1914999932050705,
                0.2744719982147217,
                -0.04599999636411667
            ],
            "min": [
                -0.019500000402331353,
                0.1315719485282898,
                -0.18799997866153718
            ]
        },
        {
            "bufferView": 1,
            "byteOffset": 0,
            "componentType": 5126,
            "count": 72,
            "type": "VEC3",
            "max": [
                1.0,
                1.0,
                1.0
            ],
            "min": [
                -1.0,
                -1.0,
                -1.0
            ]
        },
        {
            "bufferView": 2,
            "byteOffset": 0,
            "componentType": 5125,
            "count": 144,
            "type": "SCALAR",
            "max": [
                71
            ],
            "min": [
                0
            ]
        }
    ],
    "buffers": [
        {
            "byteLength": 2304,
            "uri": "core96slidewaste.bin"
        }
    ],
    "bufferViews": [
        {
            "buffer": 0,
            "byteOffset": 0,
            "byteLength": 864,
            "target": 34962
        },
        {
            "buffer": 0,
            "byteOffset": 864,
            "byteLength": 864,
            "target": 34962
        },
        {
            "buffer": 0,
            "byteOffset": 1728,
            "byteLength": 576,
            "target": 34963
        }
    ],
    "materials": [
        {
            "name": "Material",
            "pbrMetallicRoughness": {
                "baseColorFactor": [
                    0.7529410123825073,
                    0.7529410123825073,
                    0.7529410123825073,
                    1.0
                ],
                "metallicFactor": 0.0,
                "roughnessFactor": 0.9326549172401428
            },
            "emissiveFactor": [
                0.02352900058031082,
                0.02352900058031082,
                0.02352900058031082
            ],
            "extensions": {
                "KHR_materials_pbrSpecularGlossiness": {
                    "diffuseFactor": [
                        0.7529410123825073,
                        0.7529410123825073,
                        0.7529410123825073,
                        1.0
                    ],
                    "specularFactor": [
                        0.7529410123825073,
                        0.7529410123825073,
                        0.7529410123825073
                    ],
                    "glossinessFactor": 0.00800000037997961
                }
            }
        }
    ],
    "meshes": [
        {
            "name": "Frm6.Poly_Geom_Data.Frm28.Frm26.Frm24.Frm22.Frm20.Frm18.Frm16.Frm14.Frm12.Frm10.Frm8.Frm4",
            "primitives": [
                {
                    "mode": 4,
                    "material": 0,
                    "indices": 2,
                    "attributes": {
                        "POSITION": 0,
                        "NORMAL": 1
                    }
                }
            ]
        }
    ],
    "nodes": [
        {
            "name": "$MergedNode_0",
            "matrix": [
                1000.0,
                0.0,
                -0.0,
                0.0,
                0.0,
                1000.0,
                -0.0,
                0.0,
                0.0,
                0.0,
                1000.0,
                -0.0,
                -85.99999237060547,
                -301.0155029296875,
                -42.55651092529297,
                1.0
            ],
            "mesh": 0
        }
    ],
    "scenes": [
        {
            "nodes": [
                0
            ]
        }
    ],
    "scene": 0
}