{
    "asset": {
        "version": "2.0",
        "generator": "Open Asset Import Library (assimp v5.2.f93f50fa)"
    },
    "extensionsUsed": [
        "KHR_materials_pbrSpecularGlossiness",
        "FB_ngon_encoding"
    ],
    "accessors": [
        {
            "bufferView": 0,
            "byteOffset": 0,
            "componentType": 5126,
            "count": 132,
            "type": "VEC3",
            "max": [
                0.004900000058114529,
                0.004699999932199717,
                0.004900000058114529
            ],
            "min": [
                -0.004900000058114529,
                -0.004699999932199717,
                -0.004900000058114529
            ]
        },
        {
            "bufferView": 1,
            "byteOffset": 0,
            "componentType": 5126,
            "count": 132,
            "type": "VEC3",
            "max": [
                1.0,
                0.9990137815475464,
                1.0
            ],
            "min": [
                -1.0,
                -0.9990137815475464,
                -1.0
            ]
        },
        {
            "bufferView": 2,
            "byteOffset": 0,
            "componentType": 5126,
            "count": 132,
            "type": "VEC2",
            "max": [
                1.0,
                1.0
            ],
            "min": [
                0.0,
                0.0
            ]
        },
        {
            "bufferView": 3,
            "byteOffset": 0,
            "componentType": 5125,
            "count": 540,
            "type": "SCALAR",
            "max": [
                131
            ],
            "min": [
                0
            ]
        }
    ],
    "buffers": [
        {
            "byteLength": 6384,
            "uri": "verification.bin"
        }
    ],
    "bufferViews": [
        {
            "buffer": 0,
            "byteOffset": 0,
            "byteLength": 1584,
            "target": 34962
        },
        {
            "buffer": 0,
            "byteOffset": 1584,
            "byteLength": 1584,
            "target": 34962
        },
        {
            "buffer": 0,
            "byteOffset": 3168,
            "byteLength": 1056,
            "target": 34962
        },
        {
            "buffer": 0,
            "byteOffset": 4224,
            "byteLength": 2160,
            "target": 34963
        }
    ],
    "materials": [
        {
            "name": "Material",
            "pbrMetallicRoughness": {
                "baseColorFactor": [
                    0.11764699965715409,
                    0.11764699965715409,
                    0.11764699965715409,
                    1.0
                ],
                "metallicFactor": 0.0,
                "roughnessFactor": 0.9730619192123413
            },
            "emissiveFactor": [
                0.02352900058031082,
                0.02352900058031082,
                0.02352900058031082
            ],
            "extensions": {
                "KHR_materials_pbrSpecularGlossiness": {
                    "diffuseFactor": [
                        0.11764699965715409,
                        0.11764699965715409,
                        0.11764699965715409,
                        1.0
                    ],
                    "specularFactor": [
                        0.3011769950389862,
                        0.3011769950389862,
                        0.3011769950389862
                    ],
                    "glossinessFactor": 0.00800000037997961
                }
            }
        }
    ],
    "meshes": [
        {
            "name": "Frm0",
            "primitives": [
                {
                    "mode": 4,
                    "material": 0,
                    "indices": 3,
                    "attributes": {
                        "POSITION": 0,
                        "NORMAL": 1,
                        "TEXCOORD_0": 2
                    }
                }
            ]
        }
    ],
    "nodes": [
        {
            "name": "Frm0",
            "matrix": [
                1000.0,
                0.0,
                -0.0,
                0.0,
                0.0,
                1000.0,
                -0.0,
                0.0,
                -0.0,
                -0.0,
                1000.0,
                -0.0,
                0.0,
                0.0,
                -0.0,
                1.0
            ],
            "mesh": 0
        }
    ],
    "scenes": [
        {
            "nodes": [
                0
            ]
        }
    ],
    "scene": 0
}